# xmcd
#
# Track frame offsets:
#	150
#	8902
#	20267
#	30065
#	41292
#	50792
#	61945
#	69270
#	79362
#	88040
#	97305
#	107060
#	118420
#	131202
#	140962
#	150832
#	161130
#	171865
#	182030
#	192007
#	201647
#	210672
#	222405
#	235132
#
# Disc length: 3274 seconds
#
# Revision: 0
# Processed by: cddbd v1.4PL0 Copyright (c) Steve Scherf et al.
# Submitted via: EasyCDDAExtractor 5.0.2.1
#
DISCID=5c0cc818
DTITLE=Chet ATKINS - Mister Guitar - Workshop
DYEAR=1900
DGENRE=Folk-Rock
TTITLE0=I Know That You Know
TTITLE1=Rainbow
TTITLE2=Hello Bluebird
TTITLE3=Siesta
TTITLE4=Country Style
TTITLE5=Show Me The Way To Go Home
TTITLE6=I'm Forever Blowing Bubbles
TTITLE7=Backwoods
TTITLE8=Country Gentleman
TTITLE9=Slinkey
TTITLE10=Jessie
TTITLE11=Piano Concerto In B-Flat Minor
TTITLE12=Lambeth Walk
TTITLE13=Theme From "A Summer Place"
TTITLE14=Whispering
TTITLE15=In A Little Spanish Town ( Twas On A Night Like This )
TTITLE16=Sleep
TTITLE17=Marie
TTITLE18=Hot Mocking Bird
TTITLE19=Lullaby Of Birdland
TTITLE20=Tammy
TTITLE21=Goofus
TTITLE22=Bonita
TTITLE23=Whatever Will Be, Will Be ( Que Sera, Sera )
EXTD=
EXTT0=
EXTT1=
EXTT2=
EXTT3=
EXTT4=
EXTT5=
EXTT6=
EXTT7=
EXTT8=
EXTT9=
EXTT10=
EXTT11=
EXTT12=
EXTT13=
EXTT14=
EXTT15=
EXTT16=
EXTT17=
EXTT18=
EXTT19=
EXTT20=
EXTT21=
EXTT22=
EXTT23=
PLAYORDER=
